<svg xmlns="http://www.w3.org/2000/svg" version="1.1" xmlns:xlink="http://www.w3.org/1999/xlink" xmlns:svgjs="http://svgjs.dev/svgjs" width="1500" height="1500" viewBox="0 0 1500 1500"><rect width="1500" height="1500" fill="#000000"></rect><g transform="matrix(0.6666666666666666,0,0,0.6666666666666666,249.39393939393938,607.6001382410319)"><svg viewBox="0 0 396 113" data-background-color="#97d5ee" preserveAspectRatio="xMidYMid meet" height="428" width="1500" xmlns="http://www.w3.org/2000/svg" xmlns:xlink="http://www.w3.org/1999/xlink"><g id="tight-bounds" transform="matrix(1,0,0,1,0.2400000000000091,-0.10566222396005287)"><svg viewBox="0 0 395.52 113.21132444792009" height="113.21132444792009" width="395.52"><g><svg viewBox="0 0 586.4706941792601 167.8679309211295" height="113.21132444792009" width="395.52"><g transform="matrix(1,0,0,1,190.95069417926015,23.20027120545278)"><svg viewBox="0 0 395.52 121.46738851022394" height="121.46738851022394" width="395.52"><g id="textblocktransform"><svg viewBox="0 0 395.52 121.46738851022394" height="121.46738851022394" width="395.52" id="textblock"><g><svg viewBox="0 0 395.52 121.46738851022394" height="121.46738851022394" width="395.52"><g transform="matrix(1,0,0,1,0,0)"><svg width="395.52" viewBox="2.05 -36.41 154.04 47.309999999999995" height="121.46738851022394" data-palette-color="#db3e25"><path d="M12.55 0.6L12.55 0.6Q9.75 0.6 7.35-0.9 4.95-2.4 3.5-5.1 2.05-7.8 2.05-11.35L2.05-11.35Q2.05-14.45 3.53-17.18 5-19.9 7.63-21.58 10.25-23.25 13.6-23.25L13.6-23.25Q15.2-23.25 16.75-22.88 18.3-22.5 19.4-21.85L19.4-21.85 19.55-21.85 19.55-29.5Q19.55-30.4 19.48-31.18 19.4-31.95 18.9-32.43 18.4-32.9 17-32.9L17-32.9Q16.55-32.9 16.18-33.02 15.8-33.15 15.8-33.9L15.8-33.9Q15.8-34.65 16.6-34.8L16.6-34.8Q18.9-35.15 20.13-35.5 21.35-35.85 22-36.1 22.65-36.35 23.15-36.4L23.15-36.4Q23.55-36.45 23.83-36.25 24.1-36.05 24.1-35.45L24.1-35.45 24.1-4.6Q24.1-1.65 28-1.65L28-1.65Q28.55-1.65 28.7-1.38 28.85-1.1 28.85-0.85L28.85-0.85Q28.85-0.15 28 0L28 0 20.05 0.55Q19.7 0.55 19.65 0.25 19.6-0.05 19.6-0.45L19.6-0.45 19.6-2.45 19.45-2.45Q18.2-1.15 16.32-0.28 14.45 0.6 12.55 0.6ZM14.25-1.9L14.25-1.9Q16.15-1.9 17.4-2.68 18.65-3.45 19.55-4.4L19.55-4.4 19.55-17.6Q19.3-18.45 18.63-19.33 17.95-20.2 16.82-20.83 15.7-21.45 14.1-21.45L14.1-21.45Q11.2-21.45 9.2-18.73 7.2-16 7.2-11.1L7.2-11.1Q7.2-8.75 7.98-6.63 8.75-4.5 10.3-3.2 11.85-1.9 14.25-1.9ZM42.75 0.6L42.75 0.6Q38.9 0.6 36.27-1.05 33.65-2.7 32.35-5.45 31.05-8.2 31.05-11.45L31.05-11.45Q31.05-13.65 31.82-15.73 32.6-17.8 34.05-19.53 35.5-21.25 37.55-22.25 39.6-23.25 42.2-23.25L42.2-23.25Q46.8-23.25 49.12-20.88 51.45-18.5 51.8-14.85L51.8-14.85Q51.8-13.1 50.82-12.55 49.85-12 48.3-12L48.3-12 36.15-12Q36.15-9.1 36.95-6.83 37.75-4.55 39.47-3.23 41.2-1.9 44.05-1.9L44.05-1.9Q46.15-1.9 47.65-2.8 49.15-3.7 50.55-5.95L50.55-5.95Q50.95-6.45 51.65-6L51.65-6Q52.05-5.8 52.15-5.38 52.25-4.95 52.05-4.65L52.05-4.65Q50.5-2.2 48.15-0.8 45.8 0.6 42.75 0.6ZM36.15-13.9L36.15-13.9 44.3-13.9Q45.5-13.9 46.22-14.38 46.95-14.85 47-16L47-16Q47-18.15 45.82-19.83 44.65-21.5 42.2-21.5L42.2-21.5Q39.7-21.5 38.02-19.5 36.35-17.5 36.15-13.9ZM58.95 0.7L58.95 0.7Q58.49 0.7 58.24 0.4 57.99 0.1 57.99-0.3L57.99-0.3 57.99-29.5Q57.99-30.4 57.92-31.18 57.84-31.95 57.34-32.43 56.84-32.9 55.45-32.9L55.45-32.9Q54.99-32.9 54.62-33.02 54.24-33.15 54.24-33.9L54.24-33.9Q54.24-34.65 55.05-34.8L55.05-34.8Q57.34-35.15 58.57-35.5 59.8-35.85 60.45-36.1 61.09-36.35 61.59-36.4L61.59-36.4Q61.99-36.45 62.27-36.25 62.55-36.05 62.55-35.45L62.55-35.45 62.55-20.35 62.7-20.35Q64.19-21.85 66.05-22.55 67.89-23.25 69.59-23.25L69.59-23.25Q72.55-23.25 74.92-21.75 77.3-20.25 78.69-17.63 80.09-15 80.09-11.5L80.09-11.5Q80.09-8.1 78.5-5.35 76.89-2.6 74.3-1 71.69 0.6 68.64 0.6L68.64 0.6Q64.19 0.6 60.95-1.85L60.95-1.85 60.7-1.85Q60.34-1.1 60.02-0.2 59.7 0.7 58.95 0.7ZM68.19-1.1L68.19-1.1Q71.19-1.1 73.09-3.85 75-6.6 75-11.3L75-11.3Q75-13.65 74.27-15.8 73.55-17.95 71.97-19.35 70.39-20.75 67.84-20.75L67.84-20.75Q66.14-20.75 64.84-20.15 63.55-19.55 62.55-18.45L62.55-18.45 62.55-5.25Q62.7-4.55 63.37-3.58 64.05-2.6 65.25-1.85 66.44-1.1 68.19-1.1ZM86.14 10.9L86.14 10.9Q84.69 10.9 83.42 10.25 82.14 9.6 81.39 8.53 80.64 7.45 80.64 6.2L80.64 6.2Q80.69 4.85 81.22 4.13 81.74 3.4 82.39 3.13 83.04 2.85 83.49 2.8 83.94 2.75 83.84 2.75L83.84 2.75Q84.79 2.75 85.29 3.13 85.79 3.5 85.79 3.75L85.79 3.75Q85.79 3.85 85.42 4.23 85.04 4.6 84.99 5.55L84.99 5.55Q84.94 6.45 85.54 7.3 86.14 8.15 87.39 8.15L87.39 8.15Q88.79 8.15 89.94 7.13 91.09 6.1 91.99 4.6 92.89 3.1 93.54 1.7L93.54 1.7Q93.89 0.6 93.49-0.6L93.49-0.6Q92.29-3.3 91.14-6.35 89.99-9.4 88.92-12.25 87.84-15.1 86.79-17.25L86.79-17.25Q85.99-19.1 85.24-19.88 84.49-20.65 82.99-20.85L82.99-20.85Q82.34-20.95 82.12-21.05 81.89-21.15 81.84-21.8L81.84-21.8Q81.79-22.65 82.32-22.73 82.84-22.8 83.59-22.85L83.59-22.85Q86.69-23 88.44-21.95 90.19-20.9 91.29-18.4L91.29-18.4Q91.99-16.85 92.84-14.55 93.69-12.25 94.64-9.9 95.59-7.55 96.49-5.65L96.49-5.65 96.64-5.65 101.54-18.75Q102.04-20.2 101.59-20.55 101.14-20.9 99.64-20.9L99.64-20.9Q99.19-20.9 98.89-20.98 98.59-21.05 98.54-21.8L98.54-21.8Q98.54-22.1 98.72-22.45 98.89-22.8 99.24-22.8L99.24-22.8Q100.69-22.75 101.74-22.7 102.79-22.65 104.09-22.65L104.09-22.65Q104.99-22.65 105.54-22.68 106.09-22.7 106.69-22.73 107.29-22.75 108.24-22.8L108.24-22.8Q108.64-22.8 108.82-22.45 108.99-22.1 108.99-21.8L108.99-21.8Q108.94-21.05 108.62-20.98 108.29-20.9 107.89-20.9L107.89-20.9Q106.24-20.9 105.27-20.3 104.29-19.7 103.59-17.95L103.59-17.95Q103.59-17.95 103.07-16.65 102.54-15.35 101.69-13.25 100.84-11.15 99.89-8.83 98.94-6.5 98.09-4.4 97.24-2.3 96.69-0.95 96.14 0.4 96.09 0.5L96.09 0.5Q95.44 2.05 94.52 3.88 93.59 5.7 92.37 7.28 91.14 8.85 89.59 9.88 88.04 10.9 86.14 10.9ZM121.69 0.6L121.69 0.6Q117.84 0.6 115.22-1.05 112.59-2.7 111.29-5.45 109.99-8.2 109.99-11.45L109.99-11.45Q109.99-13.65 110.77-15.73 111.54-17.8 112.99-19.53 114.44-21.25 116.49-22.25 118.54-23.25 121.14-23.25L121.14-23.25Q125.74-23.25 128.06-20.88 130.39-18.5 130.74-14.85L130.74-14.85Q130.74-13.1 129.76-12.55 128.79-12 127.24-12L127.24-12 115.09-12Q115.09-9.1 115.89-6.83 116.69-4.55 118.41-3.23 120.14-1.9 122.99-1.9L122.99-1.9Q125.09-1.9 126.59-2.8 128.09-3.7 129.49-5.95L129.49-5.95Q129.89-6.45 130.59-6L130.59-6Q130.99-5.8 131.09-5.38 131.19-4.95 130.99-4.65L130.99-4.65Q129.44-2.2 127.09-0.8 124.74 0.6 121.69 0.6ZM115.09-13.9L115.09-13.9 123.24-13.9Q124.44-13.9 125.16-14.38 125.89-14.85 125.94-16L125.94-16Q125.94-18.15 124.77-19.83 123.59-21.5 121.14-21.5L121.14-21.5Q118.64-21.5 116.97-19.5 115.29-17.5 115.09-13.9ZM135.64 0.15L135.64 0.15Q135.24 0.15 135.04-0.18 134.84-0.5 134.84-0.85L134.84-0.85Q134.89-1.6 135.19-1.68 135.49-1.75 135.99-1.75L135.99-1.75Q137.44-1.75 138.01-2.18 138.59-2.6 139.39-4.15L139.39-4.15 146.29-18.5Q147.14-20.35 146.79-20.7 146.44-21.05 144.99-21.05L144.99-21.05 142.89-21.05Q141.34-21.05 140.36-20.65 139.39-20.25 138.84-19 138.29-17.75 137.94-15.25L137.94-15.25Q137.89-14.85 137.44-14.65 136.99-14.45 136.44-14.45L136.44-14.45Q136.09-14.45 135.71-14.68 135.34-14.9 135.34-15.35L135.34-15.35 136.19-21.5Q136.29-22.25 136.59-22.45 136.89-22.65 137.34-22.65L137.34-22.65 151.04-22.65Q151.94-22.65 152.46-22.68 152.99-22.7 153.56-22.73 154.14-22.75 155.09-22.8L155.09-22.8Q155.49-22.8 155.69-22.5 155.89-22.2 155.89-21.8L155.89-21.8Q155.84-21.05 155.51-20.98 155.19-20.9 154.74-20.9L154.74-20.9Q153.34-20.9 152.74-20.5 152.14-20.1 151.29-18.5L151.29-18.5 144.44-4.15Q143.59-2.3 143.96-1.95 144.34-1.6 145.74-1.6L145.74-1.6 148.54-1.6Q150.14-1.6 151.09-2 152.04-2.4 152.61-3.65 153.19-4.9 153.49-7.4L153.49-7.4Q153.54-7.8 154.01-8 154.49-8.2 154.99-8.2L154.99-8.2Q155.39-8.2 155.74-7.98 156.09-7.75 156.09-7.3L156.09-7.3 155.24-1.15Q155.14-0.4 154.84-0.2 154.54 0 154.09 0L154.09 0 139.64 0Q138.79 0 138.24 0.03 137.69 0.05 137.14 0.08 136.59 0.1 135.64 0.15Z" opacity="1" transform="matrix(1,0,0,1,0,0)" fill="#ffffff" class="wordmark-text-0" data-fill-palette-color="primary" id="text-0"></path></svg></g></svg></g></svg></g></svg></g><g><svg viewBox="0 0 162.27515896932053 167.8679309211295" height="167.8679309211295" width="162.27515896932053"><g><svg xmlns="http://www.w3.org/2000/svg" xmlns:xlink="http://www.w3.org/1999/xlink" version="1.1" x="0" y="0" viewBox="4 2.0006974923760468 58.000335734450346 59.99930250762395" style="enable-background:new 0 0 64 64;" xml:space="preserve" height="167.8679309211295" width="162.27515896932053" class="icon-icon-0" data-fill-palette-color="accent" id="icon-0"><path d="M50 34C47.243 34 45 36.243 45 39S47.243 44 50 44 55 41.757 55 39 52.757 34 50 34M50 42C48.346 42 47 40.654 47 39S48.346 36 50 36 53 37.346 53 39 51.654 42 50 42" fill="#ffffff" data-fill-palette-color="accent"></path><path d="M60 42C61.103 42 62 41.103 62 40V38C62 36.897 61.103 36 60 36H58.478A9 9 0 0 0 58.117 35.127L59.193 34.05C59.973 33.27 59.973 32.001 59.193 31.221L57.779 29.807A2.004 2.004 0 0 0 54.95 29.807L53.873 30.883A9 9 0 0 0 53 30.522V29C53 27.897 52.103 27 51 27H49C47.897 27 47 27.897 47 29V30.522A9 9 0 0 0 46.127 30.883L45.05 29.807A2 2 0 0 0 42.221 29.807L40.807 31.221C40.027 32.001 40.027 33.27 40.807 34.05L41.883 35.127A9 9 0 0 0 41.522 36H40C38.897 36 38 36.897 38 38V40C38 41.103 38.897 42 40 42H41.522A9 9 0 0 0 41.883 42.873L40.807 43.95C40.027 44.73 40.027 45.999 40.807 46.779L42.221 48.193C43 48.973 44.27 48.974 45.05 48.193L46.127 47.117A9 9 0 0 0 47 47.478V49C47 50.103 47.897 51 49 51H51C52.103 51 53 50.103 53 49V47.478A9 9 0 0 0 53.873 47.117L54.95 48.193C55.729 48.973 56.999 48.972 57.779 48.193L59.193 46.779C59.973 45.999 59.973 44.73 59.193 43.95L58.117 42.873A9 9 0 0 0 58.478 42zM56.179 43.765L57.778 45.365 56.363 46.779 54.764 45.18A1 1 0 0 0 53.549 45.026 7 7 0 0 1 51.75 45.771 1 1 0 0 0 51 46.738V49H49V46.738A1 1 0 0 0 48.25 45.77 7 7 0 0 1 46.451 45.025 1 1 0 0 0 45.235 45.179L43.635 46.778 42.221 45.363 43.82 43.764A1 1 0 0 0 43.974 42.549 7 7 0 0 1 43.229 40.75 1 1 0 0 0 42.262 40H40V38H42.262A1 1 0 0 0 43.23 37.25C43.394 36.615 43.644 36.01 43.975 35.451A1 1 0 0 0 43.821 34.236L42.222 32.636 43.637 31.222 45.236 32.821A1 1 0 0 0 46.451 32.975 7 7 0 0 1 48.25 32.23 1 1 0 0 0 49 31.262V29H51V31.262A1 1 0 0 0 51.75 32.23C52.385 32.394 52.99 32.644 53.549 32.975 53.941 33.206 54.442 33.142 54.764 32.821L56.364 31.222 57.778 32.637 56.179 34.236A1 1 0 0 0 56.025 35.451C56.356 36.011 56.606 36.616 56.77 37.25A1 1 0 0 0 57.738 38H60V40H57.738A1 1 0 0 0 56.77 40.75 7 7 0 0 1 56.025 42.549 1 1 0 0 0 56.179 43.765" fill="#ffffff" data-fill-palette-color="accent"></path><path d="M21 22C18.243 22 16 24.243 16 27S18.243 32 21 32 26 29.757 26 27 23.757 22 21 22M21 30C19.346 30 18 28.654 18 27S19.346 24 21 24 24 25.346 24 27 22.654 30 21 30" fill="#ffffff" data-fill-palette-color="accent"></path><path d="M31 30C32.103 30 33 29.103 33 28V26C33 24.897 32.103 24 31 24H29.478A9 9 0 0 0 29.117 23.127L30.193 22.05C30.973 21.27 30.973 20.001 30.193 19.221L28.779 17.807A2.003 2.003 0 0 0 25.95 17.807L24.873 18.883A9 9 0 0 0 24 18.522V17C24 15.897 23.103 15 22 15H20C18.897 15 18 15.897 18 17V18.522A9 9 0 0 0 17.127 18.883L16.05 17.807A2 2 0 0 0 13.221 17.807L11.807 19.221C11.027 20.001 11.027 21.27 11.807 22.05L12.883 23.127A9 9 0 0 0 12.522 24H11C9.897 24 9 24.897 9 26V28C9 29.103 9.897 30 11 30H12.522A9 9 0 0 0 12.883 30.873L11.807 31.95C11.027 32.73 11.027 33.999 11.807 34.779L13.221 36.193C14.001 36.973 15.271 36.974 16.05 36.193L17.127 35.117A9 9 0 0 0 18 35.478V37C18 38.103 18.897 39 20 39H22C23.103 39 24 38.103 24 37V35.478A9 9 0 0 0 24.873 35.117L25.95 36.193C26.729 36.973 27.999 36.972 28.779 36.193L30.193 34.779C30.973 33.999 30.973 32.73 30.193 31.95L29.117 30.873A9 9 0 0 0 29.478 30zM27.179 31.765L28.778 33.365 27.363 34.779 25.764 33.18A1 1 0 0 0 24.549 33.026 7 7 0 0 1 22.75 33.771 1 1 0 0 0 22 34.738V37H20V34.738A1 1 0 0 0 19.25 33.77 7 7 0 0 1 17.451 33.025 1 1 0 0 0 16.235 33.179L14.635 34.778 13.221 33.363 14.82 31.764A1 1 0 0 0 14.974 30.549 7 7 0 0 1 14.229 28.75 1 1 0 0 0 13.262 28H11V26H13.262A1 1 0 0 0 14.23 25.25C14.394 24.615 14.644 24.01 14.975 23.451A1 1 0 0 0 14.821 22.236L13.222 20.636 14.637 19.222 16.236 20.821A1 1 0 0 0 17.451 20.975 7 7 0 0 1 19.25 20.23 1 1 0 0 0 20 19.262V17H22V19.262A1 1 0 0 0 22.75 20.23C23.385 20.394 23.99 20.644 24.549 20.975 24.941 21.206 25.442 21.143 25.764 20.821L27.364 19.222 28.778 20.637 27.179 22.236A1 1 0 0 0 27.025 23.451C27.356 24.011 27.606 24.616 27.77 25.25A1 1 0 0 0 28.738 26H31V28H28.738A1 1 0 0 0 27.77 28.75 7 7 0 0 1 27.025 30.549 1 1 0 0 0 27.179 31.765" fill="#ffffff" data-fill-palette-color="accent"></path><path d="M42 62V56C42 53.243 39.757 51 37 51H36.46A5.97 5.97 0 0 0 38 47C38 43.691 35.309 41 32 41S26 43.691 26 47A5.97 5.97 0 0 0 27.54 51H27C24.243 51 22 53.243 22 56V62H24V56C24 54.346 25.346 53 27 53H37C38.654 53 40 54.346 40 56V62zM28 47C28 44.794 29.794 43 32 43S36 44.794 36 47 34.206 51 32 51 28 49.206 28 47" fill="#ffffff" data-fill-palette-color="accent"></path><rect x="26" y="56" width="2" height="6" fill="#ffffff" data-fill-palette-color="accent"></rect><rect x="36" y="56" width="2" height="6" fill="#ffffff" data-fill-palette-color="accent"></rect><path d="M48.052 7.266C47.933 7.621 48.023 8.014 48.284 8.282L50.931 10.995 50.305 14.839A1 1 0 0 0 51.776 15.876L55 14.093 58.224 15.875A1.01 1.01 0 0 0 59.284 15.817 1 1 0 0 0 59.695 14.838L59.069 10.994 61.716 8.281A1 1 0 0 0 61.151 6.594L57.533 6.042 55.906 2.575A1.001 1.001 0 0 0 54.095 2.575L52.468 6.042 48.85 6.594A1 1 0 0 0 48.052 7.266M53.297 7.939A1 1 0 0 0 54.051 7.375L55 5.354 55.949 7.375C56.091 7.677 56.374 7.888 56.703 7.939L58.925 8.278 57.284 9.96A1 1 0 0 0 57.013 10.819L57.389 13.128 55.483 12.075A1 1 0 0 0 54.515 12.075L52.609 13.128 52.985 10.819A1 1 0 0 0 52.714 9.96L51.073 8.278z" fill="#ffffff" data-fill-palette-color="accent"></path><path d="M23 50V48H20C18.346 48 17 46.654 17 45V40H15V45C15 47.757 17.243 50 20 50z" fill="#ffffff" data-fill-palette-color="accent"></path><path d="M49 56C49 57.654 47.654 59 46 59H44V61H46C48.757 61 51 58.757 51 56V53H49z" fill="#ffffff" data-fill-palette-color="accent"></path><path d="M20 59H9C7.346 59 6 57.654 6 56V13C6 11.346 7.346 10 9 10H35V12A1 1 0 0 0 36.515 12.857L41.515 9.857A1 1 0 0 0 41.515 8.143L36.515 5.143A0.999 0.999 0 0 0 35 6V8H9C6.243 8 4 10.243 4 13V56C4 58.757 6.243 61 9 61H20zM37 7.766L39.056 9 37 10.234z" fill="#ffffff" data-fill-palette-color="accent"></path><path d="M33 21H46C47.654 21 49 22.346 49 24V25H51V24C51 21.243 48.757 19 46 19H33z" fill="#ffffff" data-fill-palette-color="accent"></path></svg></g></svg></g></svg></g><defs></defs></svg><rect width="395.52" height="113.21132444792009" fill="none" stroke="none" visibility="hidden"></rect></g></svg></g></svg>