<svg width="294" height="85" viewBox="0 0 294 85" fill="none" xmlns="http://www.w3.org/2000/svg">
<g clip-path="url(#clip0_301_36)">
<g clip-path="url(#clip1_301_36)">
<g clip-path="url(#clip2_301_36)">
<g clip-path="url(#clip3_301_36)">
<g clip-path="url(#clip4_301_36)">
<g clip-path="url(#clip5_301_36)">
<g clip-path="url(#clip6_301_36)">
<path d="M108.259 54.7732C106.076 54.7732 104.049 54.1886 102.178 53.0192C100.307 51.8498 98.8062 50.2127 97.6757 48.1079C96.5452 46.003 95.98 43.5668 95.98 40.7994C95.98 38.3827 96.5569 36.1102 97.7108 33.982C98.8569 31.8615 100.455 30.1465 102.506 28.8368C104.548 27.5349 106.875 26.8839 109.487 26.8839C110.735 26.8839 111.963 27.0282 113.171 27.3166C114.38 27.6128 115.413 28.0143 116.27 28.521H116.446V19.5754C116.446 18.8738 116.418 18.219 116.364 17.6109C116.301 17.0106 116.075 16.5234 115.685 16.1492C115.296 15.7828 114.555 15.5996 113.463 15.5996C113.113 15.5996 112.793 15.5528 112.504 15.4593C112.208 15.3579 112.06 15.0149 112.06 14.4302C112.06 13.8455 112.372 13.4947 112.996 13.3778C114.789 13.1049 116.165 12.8321 117.124 12.5592C118.075 12.2864 118.804 12.0525 119.311 11.8576C119.818 11.6627 120.266 11.5458 120.656 11.5068C120.968 11.4678 121.233 11.5263 121.451 11.6822C121.661 11.8381 121.767 12.15 121.767 12.6177V48.6925C121.767 50.9923 123.287 52.1422 126.328 52.1422C126.756 52.1422 127.029 52.2474 127.146 52.4579C127.263 52.6762 127.322 52.8828 127.322 53.0777C127.322 53.6234 126.99 53.9547 126.328 54.0716L117.03 54.7148C116.757 54.7148 116.602 54.5978 116.563 54.364C116.524 54.1301 116.504 53.8572 116.504 53.5454V51.2067H116.329C115.354 52.2201 114.134 53.066 112.668 53.7442C111.21 54.4302 109.741 54.7732 108.259 54.7732ZM110.247 51.8498C111.729 51.8498 112.957 51.5458 113.931 50.9377C114.906 50.3375 115.744 49.667 116.446 48.9264V33.4908C116.251 32.8282 115.892 32.1539 115.37 31.4678C114.84 30.7896 114.134 30.2049 113.253 29.7138C112.38 29.2305 111.319 28.9888 110.072 28.9888C107.811 28.9888 105.901 30.049 104.342 32.1695C102.782 34.2977 102.003 37.2718 102.003 41.0917C102.003 42.9237 102.307 44.666 102.915 46.3187C103.515 47.9792 104.42 49.3162 105.628 50.3297C106.836 51.3431 108.376 51.8498 110.247 51.8498ZM143.577 54.7732C140.576 54.7732 138.049 54.1301 135.999 52.8438C133.956 51.5575 132.428 49.8424 131.415 47.6986C130.401 45.5548 129.894 43.216 129.894 40.6824C129.894 38.9673 130.195 37.2991 130.795 35.6775C131.403 34.0638 132.272 32.5826 133.403 31.234C134.533 29.8931 135.898 28.8329 137.496 28.0533C139.094 27.2737 140.907 26.8839 142.934 26.8839C146.52 26.8839 149.218 27.8077 151.027 29.6553C152.843 31.5107 153.888 33.8611 154.161 36.7066C154.161 38.0708 153.779 38.9673 153.015 39.3961C152.258 39.8249 151.276 40.0393 150.068 40.0393H135.859C135.859 42.3 136.171 44.3152 136.794 46.0849C137.418 47.8623 138.4 49.2655 139.741 50.2946C141.09 51.3314 142.875 51.8498 145.097 51.8498C146.735 51.8498 148.138 51.499 149.308 50.7974C150.477 50.0958 151.607 48.868 152.699 47.1139C153.011 46.7241 153.44 46.7046 153.985 47.0554C154.297 47.2114 154.492 47.453 154.57 47.7804C154.648 48.1157 154.609 48.4002 154.453 48.6341C153.245 50.544 151.724 52.0447 149.892 53.1361C148.06 54.2275 145.955 54.7732 143.577 54.7732ZM135.859 37.8175H145.39C146.325 37.8175 147.074 37.6304 147.635 37.2562C148.204 36.8898 148.508 36.2583 148.547 35.3618C148.547 33.6857 148.087 32.1928 147.167 30.8832C146.255 29.5813 144.844 28.9303 142.934 28.9303C140.985 28.9303 139.355 29.7099 138.046 31.269C136.744 32.8282 136.015 35.011 135.859 37.8175ZM162.522 54.8902C162.164 54.8902 161.887 54.7732 161.692 54.5394C161.497 54.3055 161.4 54.0326 161.4 53.7208V19.5754C161.4 18.8738 161.372 18.219 161.318 17.6109C161.256 17.0106 161.029 16.5234 160.64 16.1492C160.25 15.7828 159.513 15.5996 158.429 15.5996C158.071 15.5996 157.747 15.5528 157.459 15.4593C157.162 15.3579 157.014 15.0149 157.014 14.4302C157.014 13.8455 157.33 13.4947 157.962 13.3778C159.747 13.1049 161.119 12.8321 162.078 12.5592C163.037 12.2864 163.77 12.0525 164.277 11.8576C164.776 11.6627 165.22 11.5458 165.61 11.5068C165.922 11.4678 166.187 11.5263 166.405 11.6822C166.623 11.8381 166.733 12.15 166.733 12.6177V30.2751H166.908C168.07 29.1057 169.376 28.2482 170.826 27.7025C172.26 27.1568 173.64 26.8839 174.966 26.8839C177.273 26.8839 179.351 27.4686 181.199 28.638C183.054 29.8073 184.524 31.4133 185.608 33.4558C186.699 35.506 187.245 37.8954 187.245 40.6239C187.245 43.2745 186.625 45.6717 185.385 47.8155C184.13 49.9594 182.493 51.6549 180.474 52.9023C178.439 54.1496 176.232 54.7732 173.855 54.7732C170.385 54.7732 167.387 53.8183 164.861 51.9083H164.569C164.288 52.493 164.023 53.1361 163.774 53.8377C163.524 54.5394 163.107 54.8902 162.522 54.8902ZM173.328 52.7853C175.667 52.7853 177.577 51.7134 179.059 49.5696C180.548 47.4257 181.292 44.5218 181.292 40.8578C181.292 39.0258 181.008 37.2718 180.439 35.5957C179.877 33.9196 178.981 32.5359 177.749 31.4444C176.517 30.353 174.907 29.8073 172.919 29.8073C171.594 29.8073 170.424 30.0412 169.411 30.509C168.405 30.9767 167.512 31.6393 166.733 32.4969V47.9325C166.849 48.4782 167.169 49.1291 167.691 49.8853C168.222 50.6493 168.954 51.3236 169.89 51.9083C170.818 52.493 171.964 52.7853 173.328 52.7853ZM194.32 66.8177C193.19 66.8177 192.129 66.5643 191.139 66.0576C190.141 65.5509 189.35 64.8804 188.765 64.0463C188.18 63.2043 187.888 62.2961 187.888 61.3217C187.927 60.2692 188.153 59.4624 188.566 58.9011C188.972 58.332 189.428 57.9422 189.935 57.7317C190.441 57.5134 190.87 57.3848 191.221 57.3458C191.572 57.3069 191.708 57.2874 191.63 57.2874C192.371 57.2874 192.936 57.4355 193.326 57.7317C193.716 58.0202 193.911 58.2618 193.911 58.4567C193.911 58.5347 193.767 58.7218 193.478 59.018C193.182 59.3065 193.014 59.821 192.975 60.5616C192.936 61.2632 193.151 61.9453 193.618 62.608C194.086 63.2706 194.807 63.6019 195.782 63.6019C196.873 63.6019 197.868 63.2043 198.764 62.4092C199.661 61.6062 200.46 60.6201 201.162 59.4507C201.863 58.2813 202.467 57.1509 202.974 56.0595C203.247 55.202 203.228 54.3055 202.916 53.37C201.98 51.2651 201.064 49.0239 200.167 46.6462C199.271 44.2685 198.405 41.9687 197.571 39.7469C196.729 37.5251 195.899 35.5762 195.08 33.9001C194.457 32.4579 193.852 31.4328 193.268 30.8247C192.683 30.2244 191.806 29.8463 190.636 29.6904C190.13 29.6124 189.79 29.5345 189.619 29.4565C189.44 29.3786 189.33 29.0862 189.291 28.5795C189.252 27.9169 189.44 27.5544 189.853 27.492C190.258 27.4374 190.753 27.3907 191.338 27.3517C193.755 27.2347 195.646 27.5856 197.01 28.4041C198.374 29.2227 199.485 30.6064 200.343 32.5553C200.889 33.7637 201.493 35.2644 202.156 37.0574C202.818 38.8504 203.52 40.6629 204.261 42.4949C205.001 44.3269 205.722 45.9835 206.424 47.4647H206.6L212.33 32.1461C212.72 31.0157 212.739 30.3141 212.388 30.0412C212.038 29.7684 211.277 29.6319 210.108 29.6319C209.757 29.6319 209.465 29.6008 209.231 29.5384C208.997 29.4838 208.86 29.1642 208.822 28.5795C208.822 28.3456 208.892 28.0923 209.032 27.8194C209.165 27.5466 209.367 27.4101 209.64 27.4101C210.771 27.4491 211.745 27.4881 212.564 27.5271C213.382 27.5661 214.298 27.5856 215.312 27.5856C216.014 27.5856 216.579 27.5739 217.008 27.5505C217.437 27.5349 217.885 27.5154 218.353 27.492C218.82 27.4764 219.425 27.4491 220.165 27.4101C220.477 27.4101 220.703 27.5466 220.844 27.8194C220.976 28.0923 221.042 28.3456 221.042 28.5795C221.003 29.1642 220.859 29.4838 220.61 29.5384C220.352 29.6008 220.068 29.6319 219.756 29.6319C218.47 29.6319 217.448 29.8658 216.692 30.3336C215.928 30.8013 215.273 31.7173 214.727 33.0816C214.727 33.0816 214.525 33.5883 214.119 34.6017C213.706 35.6152 213.168 36.9405 212.505 38.5776C211.843 40.2147 211.141 41.9375 210.4 43.7461C209.66 45.5626 208.958 47.2893 208.295 48.9264C207.633 50.5635 207.087 51.9083 206.658 52.9607C206.229 54.0132 205.995 54.5783 205.956 54.6563C205.45 55.8646 204.838 57.1821 204.12 58.6087C203.395 60.0276 202.557 61.3529 201.606 62.5846C200.647 63.8085 199.563 64.822 198.355 65.6249C197.146 66.4201 195.801 66.8177 194.32 66.8177ZM235.895 54.7732C232.893 54.7732 230.371 54.1301 228.328 52.8438C226.278 51.5575 224.746 49.8424 223.732 47.6986C222.719 45.5548 222.212 43.216 222.212 40.6824C222.212 38.9673 222.516 37.2991 223.124 35.6775C223.724 34.0638 224.59 32.5826 225.72 31.234C226.851 29.8931 228.215 28.8329 229.813 28.0533C231.412 27.2737 233.224 26.8839 235.251 26.8839C238.838 26.8839 241.535 27.8077 243.344 29.6553C245.161 31.5107 246.205 33.8611 246.478 36.7066C246.478 38.0708 246.096 38.9673 245.332 39.3961C244.576 39.8249 243.594 40.0393 242.385 40.0393H228.176C228.176 42.3 228.488 44.3152 229.112 46.0849C229.735 47.8623 230.718 49.2655 232.059 50.2946C233.408 51.3314 235.193 51.8498 237.415 51.8498C239.052 51.8498 240.455 51.499 241.625 50.7974C242.794 50.0958 243.925 48.868 245.016 47.1139C245.328 46.7241 245.757 46.7046 246.303 47.0554C246.615 47.2114 246.81 47.453 246.888 47.7804C246.965 48.1157 246.927 48.4002 246.771 48.6341C245.562 50.544 244.042 52.0447 242.21 53.1361C240.378 54.2275 238.272 54.7732 235.895 54.7732ZM228.176 37.8175H237.707C238.643 37.8175 239.391 37.6304 239.953 37.2562C240.522 36.8898 240.826 36.2583 240.865 35.3618C240.865 33.6857 240.409 32.1928 239.497 30.8832C238.577 29.5813 237.161 28.9303 235.251 28.9303C233.302 28.9303 231.677 29.7099 230.375 31.269C229.065 32.8282 228.332 35.011 228.176 37.8175ZM252.209 54.247C251.897 54.247 251.663 54.1184 251.507 53.8611C251.351 53.6117 251.273 53.3505 251.273 53.0777C251.312 52.493 251.448 52.1695 251.682 52.1071C251.916 52.0525 252.228 52.0252 252.618 52.0252C253.748 52.0252 254.536 51.8576 254.98 51.5224C255.432 51.195 255.97 50.4271 256.594 49.2188L264.663 32.4384C265.326 30.9962 265.521 30.1387 265.248 29.8658C264.975 29.593 264.274 29.4565 263.143 29.4565H260.687C259.479 29.4565 258.493 29.6124 257.728 29.9243C256.972 30.2361 256.38 30.8793 255.951 31.8537C255.522 32.8282 255.171 34.2899 254.898 36.2388C254.859 36.5507 254.664 36.7845 254.314 36.9405C253.963 37.0964 253.573 37.1743 253.144 37.1743C252.871 37.1743 252.587 37.0847 252.29 36.9054C252.002 36.7339 251.858 36.4727 251.858 36.1219L252.852 28.9303C252.93 28.3456 253.086 27.9753 253.32 27.8194C253.553 27.6635 253.846 27.5856 254.197 27.5856H270.218C270.92 27.5856 271.474 27.5739 271.879 27.5505C272.292 27.5349 272.721 27.5154 273.165 27.492C273.618 27.4764 274.214 27.4491 274.955 27.4101C275.267 27.4101 275.5 27.5271 275.656 27.761C275.812 27.9948 275.89 28.2677 275.89 28.5795C275.851 29.1642 275.703 29.4838 275.446 29.5384C275.196 29.6008 274.896 29.6319 274.545 29.6319C273.454 29.6319 272.674 29.7879 272.206 30.0997C271.739 30.4115 271.173 31.1911 270.511 32.4384L262.5 49.2188C261.837 50.661 261.65 51.5185 261.939 51.7914C262.235 52.0642 262.929 52.2006 264.02 52.2006H267.295C268.542 52.2006 269.536 52.0447 270.277 51.7329C271.017 51.4211 271.61 50.7779 272.054 49.8034C272.507 48.829 272.85 47.3673 273.084 45.4183C273.123 45.1065 273.325 44.8726 273.692 44.7167C274.066 44.5608 274.448 44.4828 274.838 44.4828C275.15 44.4828 275.442 44.5686 275.715 44.7401C275.988 44.9194 276.124 45.1845 276.124 45.5353L275.13 52.7269C275.052 53.3115 274.896 53.6818 274.662 53.8377C274.428 53.9937 274.136 54.0716 273.785 54.0716H256.886C256.224 54.0716 255.678 54.0833 255.249 54.1067C254.82 54.1223 254.392 54.1418 253.963 54.1652C253.534 54.1808 252.949 54.208 252.209 54.247Z" fill="white"/>
</g>
</g>
</g>
</g>
<g clip-path="url(#clip7_301_36)">
<g clip-path="url(#clip8_301_36)">
<path d="M67.6198 41.7051C64.1063 41.7051 61.2479 44.5633 61.2479 48.0765C61.2479 51.5896 64.1063 54.4479 67.6198 54.4479C71.1333 54.4479 73.9917 51.5896 73.9917 48.0765C73.9917 44.5633 71.1333 41.7051 67.6198 41.7051ZM67.6198 51.8993C65.512 51.8993 63.7966 50.1841 63.7966 48.0765C63.7966 45.9688 65.512 44.2536 67.6198 44.2536C69.7276 44.2536 71.443 45.9688 71.443 48.0765C71.443 50.1841 69.7276 51.8993 67.6198 51.8993Z" fill="white"/>
<path d="M80.3637 51.8993C81.7693 51.8993 82.9124 50.7563 82.9124 49.3508V46.8022C82.9124 45.3967 81.7693 44.2537 80.3637 44.2537H78.4241C78.2903 43.875 78.1367 43.5037 77.964 43.1412L79.3352 41.7688C80.3293 40.7749 80.3293 39.1578 79.3352 38.1639L77.5333 36.3621C77.0546 35.8851 76.4064 35.6173 75.7306 35.6173C75.0549 35.6173 74.4067 35.8851 73.928 36.3621L72.5555 37.7332C72.193 37.5605 71.8216 37.4069 71.443 37.2732V35.3337C71.443 33.9282 70.2998 32.7852 68.8942 32.7852H66.3454C64.9398 32.7852 63.7966 33.9282 63.7966 35.3337V37.2732C63.418 37.4069 63.0466 37.5605 62.6841 37.7332L61.3116 36.3621C61.0749 36.1253 60.7939 35.9375 60.4846 35.8093C60.1753 35.6812 59.8438 35.6152 59.509 35.6152C59.1742 35.6152 58.8426 35.6812 58.5333 35.8093C58.224 35.9375 57.943 36.1253 57.7063 36.3621L55.9044 38.1639C54.9103 39.1578 54.9103 40.7749 55.9044 41.7688L57.2756 43.1412C57.1029 43.5037 56.9493 43.875 56.8155 44.2537H54.8759C53.4703 44.2537 52.3271 45.3967 52.3271 46.8022V49.3508C52.3271 50.7563 53.4703 51.8993 54.8759 51.8993H56.8155C56.9493 52.2779 57.1029 52.6493 57.2756 53.0118L55.9044 54.3842C54.9103 55.3781 54.9103 56.9952 55.9044 57.9891L57.7063 59.7909C58.6991 60.7849 60.3176 60.7861 61.3116 59.7909L62.6841 58.4198C63.0466 58.5925 63.418 58.7461 63.7966 58.8798V60.8193C63.7966 62.2248 64.9398 63.3678 66.3454 63.3678H68.8942C70.2998 63.3678 71.443 62.2248 71.443 60.8193V58.8798C71.8216 58.7461 72.193 58.5925 72.5555 58.4198L73.928 59.7909C74.9208 60.7849 76.5392 60.7836 77.5333 59.7909L79.3352 57.9891C80.3293 56.9952 80.3293 55.3781 79.3352 54.3842L77.964 53.0118C78.1367 52.6493 78.2903 52.2779 78.4241 51.8993H80.3637ZM75.4942 54.1484L77.532 56.1873L75.7287 57.9891L73.691 55.9515C73.4911 55.7518 73.2306 55.6242 72.9503 55.5887C72.6701 55.5531 72.3859 55.6117 72.1426 55.7553C71.4264 56.177 70.6547 56.4965 69.85 56.7046C69.5767 56.7752 69.3345 56.9345 69.1616 57.1575C68.9886 57.3805 68.8945 57.6546 68.8942 57.9368V60.8193H66.3454V57.9368C66.3453 57.6544 66.2514 57.38 66.0784 57.1567C65.9054 56.9334 65.6631 56.774 65.3896 56.7033C64.5849 56.4952 63.8132 56.1757 63.097 55.754C62.8535 55.6102 62.5691 55.5514 62.2886 55.5869C62.008 55.6224 61.7473 55.7502 61.5473 55.9502L59.5083 57.9878L57.7063 56.1847L59.7441 54.1471C59.9438 53.9473 60.0715 53.6868 60.107 53.4066C60.1425 53.1263 60.0839 52.8422 59.9403 52.5989C59.5186 51.8827 59.199 51.1111 58.9909 50.3065C58.9204 50.0332 58.7611 49.7911 58.538 49.6181C58.315 49.4452 58.0408 49.3511 57.7586 49.3508H54.8759V46.8022H57.7586C58.0411 46.8021 58.3155 46.7082 58.5388 46.5352C58.7621 46.3622 58.9216 46.12 58.9922 45.8465C59.2012 45.0373 59.5198 44.2664 59.9416 43.5541C60.0852 43.3108 60.1438 43.0266 60.1082 42.7464C60.0727 42.4661 59.9451 42.2056 59.7454 42.0058L57.7076 39.967L59.5109 38.1652L61.5486 40.2027C61.7484 40.4024 62.009 40.5301 62.2892 40.5656C62.5695 40.6011 62.8537 40.5425 63.097 40.399C63.8132 39.9773 64.5849 39.6577 65.3896 39.4496C65.6631 39.379 65.9054 39.2195 66.0784 38.9963C66.2514 38.773 66.3453 38.4986 66.3454 38.2161V35.3337H68.8942V38.2161C68.8943 38.4986 68.9882 38.773 69.1612 38.9963C69.3342 39.2195 69.5765 39.379 69.85 39.4496C70.6592 39.6586 71.4302 39.9772 72.1426 40.399C72.6422 40.6933 73.2806 40.6118 73.691 40.2027L75.73 38.1652L77.532 39.9683L75.4942 42.0058C75.2945 42.2056 75.1669 42.4661 75.1313 42.7464C75.0958 43.0266 75.1544 43.3108 75.298 43.5541C75.7198 44.2677 76.0384 45.0386 76.2474 45.8465C76.318 46.12 76.4775 46.3622 76.7008 46.5352C76.9241 46.7082 77.1985 46.8021 77.481 46.8022H80.3637V49.3508H77.481C77.1985 49.3508 76.9241 49.4447 76.7008 49.6177C76.4775 49.7907 76.318 50.033 76.2474 50.3065C76.0393 51.1111 75.7197 51.8827 75.298 52.5989C75.1541 52.8423 75.0953 53.1267 75.1309 53.4072C75.1664 53.6878 75.2942 53.9485 75.4942 54.1484Z" fill="white"/>
<path d="M30.6626 26.4131C27.1491 26.4131 24.2906 29.2713 24.2906 32.7845C24.2906 36.2977 27.1491 39.1559 30.6626 39.1559C34.176 39.1559 37.0345 36.2977 37.0345 32.7845C37.0345 29.2713 34.176 26.4131 30.6626 26.4131ZM30.6626 36.6073C28.5547 36.6073 26.8394 34.8921 26.8394 32.7845C26.8394 30.6768 28.5547 28.9616 30.6626 28.9616C32.7704 28.9616 34.4857 30.6768 34.4857 32.7845C34.4857 34.8921 32.7704 36.6073 30.6626 36.6073Z" fill="white"/>
<path d="M43.4065 36.6073C44.8121 36.6073 45.9552 35.4643 45.9552 34.0588V31.5102C45.9552 30.1047 44.8121 28.9617 43.4065 28.9617H41.4668C41.3331 28.583 41.1795 28.2117 41.0068 27.8492L42.378 26.4768C43.372 25.4829 43.372 23.8658 42.378 22.8719L40.576 21.0701C40.0975 20.5928 39.4493 20.3248 38.7734 20.3248C38.0976 20.3248 37.4493 20.5928 36.9708 21.0701L35.5983 22.4412C35.2357 22.2685 34.8644 22.1149 34.4857 21.9812V20.0417C34.4857 18.6362 33.3426 17.4932 31.937 17.4932H29.3882C27.9825 17.4932 26.8394 18.6362 26.8394 20.0417V21.9812C26.4608 22.1149 26.0894 22.2685 25.7269 22.4412L24.3544 21.0701C24.1177 20.8333 23.8367 20.6455 23.5274 20.5173C23.2181 20.3892 22.8865 20.3232 22.5517 20.3232C22.2169 20.3232 21.8854 20.3892 21.5761 20.5173C21.2668 20.6455 20.9858 20.8333 20.7491 21.0701L18.9471 22.8719C17.9531 23.8658 17.9531 25.4829 18.9471 26.4768L20.3184 27.8492C20.1457 28.2117 19.9921 28.583 19.8583 28.9617H17.9187C16.5131 28.9617 15.3699 30.1047 15.3699 31.5102V34.0588C15.3699 35.4643 16.5131 36.6073 17.9187 36.6073H19.8583C19.9921 36.9859 20.1457 37.3573 20.3184 37.7198L18.9471 39.0922C17.9531 40.0861 17.9531 41.7032 18.9471 42.6971L20.7491 44.4989C21.7431 45.4929 23.3616 45.4941 24.3544 44.4989L25.7269 43.1278C26.0894 43.3005 26.4608 43.4541 26.8394 43.5878V45.5273C26.8394 46.9328 27.9825 48.0758 29.3882 48.0758H31.937C33.3426 48.0758 34.4857 46.9328 34.4857 45.5273V43.5878C34.8644 43.4541 35.2357 43.3005 35.5983 43.1278L36.9708 44.4989C37.9635 45.4929 39.582 45.4916 40.576 44.4989L42.378 42.6971C43.372 41.7032 43.372 40.0861 42.378 39.0922L41.0068 37.7198C41.1795 37.3573 41.3331 36.9859 41.4668 36.6073H43.4065ZM38.537 38.8564L40.5748 40.8953L38.7715 42.6971L36.7338 40.6595C36.5339 40.4598 36.2734 40.3322 35.9931 40.2967C35.7129 40.2611 35.4287 40.3198 35.1854 40.4633C34.4691 40.885 33.6975 41.2045 32.8928 41.4126C32.6195 41.4832 32.3773 41.6425 32.2044 41.8655C32.0314 42.0885 31.9373 42.3626 31.937 42.6448V45.5273H29.3882V42.6448C29.3881 42.3624 29.2942 42.088 29.1212 41.8647C28.9482 41.6414 28.7059 41.482 28.4324 41.4114C27.6277 41.2032 26.856 40.8837 26.1398 40.462C25.8963 40.3182 25.6119 40.2594 25.3314 40.2949C25.0508 40.3304 24.79 40.4583 24.5901 40.6583L22.5511 42.6958L20.7491 40.8927L22.7869 38.8551C22.9866 38.6553 23.1142 38.3948 23.1498 38.1146C23.1853 37.8343 23.1267 37.5502 22.9831 37.3069C22.5614 36.5907 22.2418 35.8191 22.0337 35.0145C21.9631 34.7412 21.8038 34.4991 21.5808 34.3261C21.3578 34.1532 21.0836 34.0591 20.8014 34.0588H17.9187V31.5102H20.8014C21.0838 31.5101 21.3583 31.4162 21.5816 31.2432C21.8049 31.0703 21.9644 30.828 22.035 30.5545C22.244 29.7453 22.5626 28.9744 22.9844 28.2621C23.1279 28.0188 23.1866 27.7347 23.151 27.4544C23.1155 27.1742 22.9879 26.9136 22.7881 26.7138L20.7504 24.675L22.5537 22.8732L24.5914 24.9107C24.7912 25.1104 25.0518 25.2381 25.332 25.2736C25.6123 25.3091 25.8964 25.2505 26.1398 25.107C26.856 24.6853 27.6277 24.3657 28.4324 24.1576C28.7059 24.087 28.9482 23.9276 29.1212 23.7043C29.2942 23.481 29.3881 23.2066 29.3882 22.9241V20.0417H31.937V22.9241C31.937 23.2066 32.031 23.481 32.204 23.7043C32.377 23.9276 32.6193 24.087 32.8928 24.1576C33.702 24.3666 34.473 24.6852 35.1854 25.107C35.6849 25.4013 36.3234 25.321 36.7338 24.9107L38.7728 22.8732L40.5748 24.6763L38.537 26.7138C38.3373 26.9136 38.2097 27.1742 38.1741 27.4544C38.1386 27.7347 38.1972 28.0188 38.3408 28.2621C38.7626 28.9757 39.0812 29.7466 39.2902 30.5545C39.3608 30.828 39.5203 31.0703 39.7436 31.2432C39.9669 31.4162 40.2413 31.5101 40.5238 31.5102H43.4065V34.0588H40.5238C40.2413 34.0588 39.9669 34.1527 39.7436 34.3257C39.5203 34.4987 39.3608 34.741 39.2902 35.0145C39.0821 35.8191 38.7625 36.5907 38.3408 37.3069C38.1969 37.5503 38.1381 37.8347 38.1736 38.1153C38.2092 38.3958 38.337 38.6565 38.537 38.8564Z" fill="white"/>
<path d="M57.4247 77.3848V69.7392C57.4247 66.226 54.5662 63.3678 51.0528 63.3678H50.3646C51.6272 61.9702 52.3265 60.154 52.3271 58.2707C52.3271 54.0541 48.8978 50.625 44.6808 50.625C40.4639 50.625 37.0345 54.0541 37.0345 58.2707C37.0351 60.154 37.7344 61.9702 38.9971 63.3678H38.3089C34.7954 63.3678 31.937 66.226 31.937 69.7392V77.3848H34.4857V69.7392C34.4857 67.6315 36.2011 65.9163 38.3089 65.9163H51.0528C53.1606 65.9163 54.8759 67.6315 54.8759 69.7392V77.3848H57.4247ZM39.5833 58.2707C39.5833 55.4596 41.8695 53.1736 44.6808 53.1736C47.4921 53.1736 49.7784 55.4596 49.7784 58.2707C49.7784 61.0817 47.4921 63.3678 44.6808 63.3678C41.8695 63.3678 39.5833 61.0817 39.5833 58.2707Z" fill="white"/>
<path d="M39.5833 69.7393H37.0345V77.3849H39.5833V69.7393Z" fill="white"/>
<path d="M52.3272 69.7393H49.7784V77.3849H52.3272V69.7393Z" fill="white"/>
<path d="M65.1373 7.63817C64.9856 8.09054 65.1003 8.59133 65.4329 8.93283L68.8062 12.3899L68.0085 17.2883C67.9697 17.5244 67.9982 17.7667 68.0907 17.9875C68.1833 18.2082 68.3361 18.3984 68.5317 18.5363C68.7274 18.6742 68.9579 18.7542 69.1969 18.7672C69.4359 18.7802 69.6737 18.7256 69.8831 18.6097L73.9917 16.3377L78.1003 18.6084C78.3102 18.7227 78.5477 18.7763 78.7863 18.7632C79.0248 18.7502 79.2551 18.671 79.4512 18.5345C79.6468 18.3967 79.7997 18.2066 79.8923 17.986C79.985 17.7654 80.0136 17.5231 79.975 17.287L79.1772 12.3887L82.5505 8.93156C82.7142 8.76386 82.8284 8.55429 82.8807 8.32589C82.933 8.09748 82.9213 7.85908 82.8469 7.6369C82.7724 7.41472 82.6382 7.21735 82.4589 7.0665C82.2796 6.91565 82.0621 6.81716 81.8305 6.78185L77.2197 6.07845L75.1463 1.66053C75.0432 1.44168 74.8799 1.25667 74.6756 1.12709C74.4713 0.997515 74.2343 0.928711 73.9924 0.928711C73.7504 0.928711 73.5134 0.997515 73.3091 1.12709C73.1048 1.25667 72.9415 1.44168 72.8384 1.66053L70.765 6.07845L66.1542 6.78185C65.9223 6.81717 65.7047 6.91581 65.5252 7.0669C65.3458 7.21799 65.2115 7.41567 65.1373 7.63817ZM71.8214 8.49576C72.0283 8.46407 72.2242 8.38192 72.3918 8.25657C72.5594 8.13123 72.6935 7.96654 72.7823 7.77706L73.9917 5.20175L75.2011 7.77706C75.3821 8.1619 75.7427 8.43077 76.162 8.49576L78.9937 8.92774L76.9024 11.0711C76.7632 11.2138 76.6595 11.3872 76.5995 11.5773C76.5395 11.7674 76.525 11.9689 76.5571 12.1657L77.0362 15.108L74.6072 13.7662C74.4184 13.6617 74.2062 13.607 73.9904 13.607C73.7747 13.607 73.5624 13.6617 73.3736 13.7662L70.9447 15.108L71.4238 12.1657C71.4559 11.9689 71.4414 11.7674 71.3814 11.5773C71.3214 11.3872 71.2176 11.2138 71.0785 11.0711L68.9872 8.92774L71.8214 8.49576Z" fill="white"/>
<path d="M33.2113 62.0934V59.5448H29.3882C27.2803 59.5448 25.565 57.8296 25.565 55.722V49.3506H23.0162V55.722C23.0162 59.2352 25.8747 62.0934 29.3882 62.0934H33.2113Z" fill="white"/>
<path d="M66.3454 69.7388C66.3454 71.8465 64.6301 73.5617 62.5223 73.5617H59.9735V76.1102H62.5223C66.0357 76.1102 68.8942 73.252 68.8942 69.7388V65.916H66.3454V69.7388Z" fill="white"/>
<path d="M29.3882 73.5617H15.3699C13.2621 73.5617 11.5468 71.8465 11.5468 69.7389V14.945C11.5468 12.8373 13.2621 11.1221 15.3699 11.1221H48.504V13.6707C48.504 13.8962 48.5639 14.1177 48.6776 14.3125C48.7913 14.5073 48.9546 14.6685 49.1509 14.7796C49.3473 14.8906 49.5695 14.9476 49.7951 14.9446C50.0206 14.9417 50.2413 14.8789 50.4347 14.7627L56.8066 10.9399C56.995 10.8266 57.151 10.6665 57.2592 10.4752C57.3674 10.2838 57.4243 10.0677 57.4243 9.84785C57.4243 9.62801 57.3674 9.4119 57.2592 9.22054C57.151 9.02919 56.995 8.86908 56.8066 8.75579L50.4347 4.93296C50.2414 4.81638 50.0206 4.75328 49.7949 4.75012C49.5692 4.74697 49.3467 4.80387 49.1503 4.91499C48.9538 5.02612 48.7904 5.18747 48.6769 5.38253C48.5633 5.57758 48.5036 5.79932 48.504 6.02502V8.57357H15.3699C11.8564 8.57357 8.99799 11.4318 8.99799 14.945V69.7389C8.99799 73.2521 11.8564 76.1103 15.3699 76.1103H29.3882V73.5617ZM51.0528 8.27539L53.6729 9.84785L51.0528 11.4203V8.27539Z" fill="white"/>
<path d="M45.9552 25.1394H62.5222C64.6301 25.1394 66.3454 26.8546 66.3454 28.9622V30.2365H68.8942V28.9622C68.8942 25.449 66.0357 22.5908 62.5222 22.5908H45.9552V25.1394Z" fill="white"/>
</g>
</g>
</g>
</g>
</g>
<defs>
<clipPath id="clip0_301_36">
<rect width="267.475" height="76.313" fill="white" transform="translate(8.82642 1)"/>
</clipPath>
<clipPath id="clip1_301_36">
<rect width="267.132" height="76.4558" fill="white" transform="translate(8.99799 0.928711)"/>
</clipPath>
<clipPath id="clip2_301_36">
<rect width="267.132" height="76.4558" fill="white" transform="translate(8.99799 0.928711)"/>
</clipPath>
<clipPath id="clip3_301_36">
<rect width="180.156" height="55.3225" fill="white" transform="translate(95.9743 11.4951)"/>
</clipPath>
<clipPath id="clip4_301_36">
<rect width="180.156" height="55.3225" fill="white" transform="translate(95.9743 11.4951)"/>
</clipPath>
<clipPath id="clip5_301_36">
<rect width="180.156" height="55.3225" fill="white" transform="translate(95.9743 11.4951)"/>
</clipPath>
<clipPath id="clip6_301_36">
<rect width="180.156" height="55.3225" fill="white" transform="translate(95.9743 11.4951)"/>
</clipPath>
<clipPath id="clip7_301_36">
<rect width="73.9149" height="76.4558" fill="white" transform="translate(8.99799 0.928711)"/>
</clipPath>
<clipPath id="clip8_301_36">
<rect width="73.9149" height="76.4558" fill="white" transform="translate(8.99799 0.928711)"/>
</clipPath>
</defs>
</svg>
